<svg width="106" height="114" viewBox="0 0 106 114" fill="none" xmlns="http://www.w3.org/2000/svg">
<g id="Group 12">
<path id="Vector" fill-rule="evenodd" clip-rule="evenodd" d="M54.5854 21.7966L54.7205 10.2591C51.7383 13.2412 47.9778 17.3572 44.9922 20.3428L54.5854 21.8001V21.7966ZM58.9644 4.42285L59.2736 13.7921L59.5366 21.6828C62.9452 22.6354 66.2046 23.9718 69.272 25.6388C77.0241 29.7939 83.461 36.0851 87.7938 43.7234C89.7594 47.1107 90.5271 48.9092 91.7605 52.915L103.938 52.5525L104.656 55.8758C101.076 56.8106 97.3337 58.0333 93.822 59.3058C93.9251 61.673 93.9251 64.3601 93.8078 66.7273C93.7936 72.4178 92.7521 77.8702 90.8648 82.9032C89.5248 86.8663 87.6907 90.6695 85.2773 94.206C65.5328 123.135 17.6804 117.59 4.47599 84.9683C-0.599642 72.4249 0.352925 60.1446 4.31604 47.3809L3.23552 27.1814L9.74711 39.9345C14.7694 32.9644 20.5986 26.5345 28.2582 22.8558L28.9336 17.4496L39.3265 7.58979L39.5469 14.5954L55.0048 1L58.9608 4.42285H58.9644Z" fill="#FBFFFF"/>
<path id="Vector_2" d="M54.5854 21.7966L54.7205 10.2591C51.7383 13.2412 47.9778 17.3572 44.9922 20.3428L54.5854 21.8001V21.7966ZM58.9644 4.42285L59.2736 13.7921L59.5366 21.6828C62.9452 22.6354 66.2046 23.9718 69.272 25.6388C77.0241 29.7939 83.461 36.0851 87.7938 43.7234C89.7594 47.1107 90.5271 48.9092 91.7605 52.915L103.938 52.5525L104.656 55.8758C101.076 56.8106 97.3337 58.0333 93.822 59.3058C93.9251 61.673 93.9251 64.3601 93.8078 66.7273C93.7936 72.4178 92.7521 77.8702 90.8648 82.9032C89.5248 86.8663 87.6907 90.6695 85.2773 94.206C65.5328 123.135 17.6804 117.59 4.47599 84.9683C-0.599642 72.4249 0.352925 60.1446 4.31604 47.3809L3.23552 27.1814L9.74711 39.9345C14.7694 32.9644 20.5986 26.5345 28.2582 22.8558L28.9336 17.4496L39.3265 7.58979L39.5469 14.5954L55.0048 1L58.9608 4.42285H58.9644Z" stroke="#D9DADA" strokeWidth="0.710872" stroke-linecap="round" stroke-linejoin="round"/>
<path id="Vector_3" fill-rule="evenodd" clip-rule="evenodd" d="M47.7859 22.8809C72.119 22.8809 91.8422 42.6076 91.8422 66.9372C91.8422 91.2668 72.1155 110.993 47.7859 110.993C23.4563 110.993 3.72955 91.2668 3.72955 66.9372C3.72955 42.6076 23.4563 22.8809 47.7859 22.8809Z" fill="white"/>
<path id="Vector_4" fill-rule="evenodd" clip-rule="evenodd" d="M102.992 54.8912C102.747 54.5323 91.0958 55.5239 89.4288 55.531C73.4022 52.78 61.4382 54.5856 54.2051 59.3093C39.2448 69.0767 40.0587 92.4004 36.1063 92.3542L30.892 92.2902C27.8672 90.4349 7.39056 36.4477 5.44277 34.3506L7.12754 48.0455C-16.214 121.763 95.6347 137.004 91.8351 59.6612C91.8173 59.2702 91.8316 58.8721 91.9595 58.6447C92.1621 58.2857 101.869 55.1827 102.992 54.8912Z" fill="#262424"/>
<path id="Vector_5" d="M102.992 54.8912C102.747 54.5323 91.0958 55.5239 89.4288 55.531C73.4022 52.78 61.4382 54.5856 54.2051 59.3093C39.2448 69.0767 40.0587 92.4004 36.1063 92.3542L30.892 92.2902C27.8672 90.4349 7.39056 36.4477 5.44277 34.3506L7.12754 48.0455C-16.214 121.763 95.6347 137.004 91.8351 59.6612C91.8173 59.2702 91.8316 58.8721 91.9595 58.6447C92.1621 58.2857 101.869 55.1827 102.992 54.8912Z" stroke="#2B2A29" strokeWidth="0.202599" stroke-linecap="round" stroke-linejoin="round"/>
<path id="Vector_6" fill-rule="evenodd" clip-rule="evenodd" d="M57.0806 73.3207C59.2203 73.2993 65.7497 72.8835 67.4771 73.2069C67.9854 73.3029 67.8254 81.0016 67.6619 81.4779C66.2437 81.9933 64.5696 82.4803 63.0804 82.6224C52.4279 83.639 49.4849 73.7188 49.3605 73.7792C48.9482 73.9747 43.4105 85.2562 43.5953 85.7929C47.0431 95.7558 74.1095 96.8115 78.6236 88.5547C79.6508 86.6744 78.9719 65.7072 78.9826 61.8721L57.0842 73.3207H57.0806Z" fill="white"/>
<path id="Vector_7" d="M57.0806 73.3207C59.2203 73.2993 65.7497 72.8835 67.4771 73.2069C67.9854 73.3029 67.8254 81.0016 67.6619 81.4779C66.2437 81.9933 64.5696 82.4803 63.0804 82.6224C52.4279 83.639 49.4849 73.7188 49.3605 73.7792C48.9482 73.9747 43.4105 85.2562 43.5953 85.7929C47.0431 95.7558 74.1095 96.8114 78.6236 88.5547C79.6508 86.6744 78.9719 65.7072 78.9826 61.8721L57.0842 73.3207H57.0806Z" stroke="#2B2A29" strokeWidth="0.202599" stroke-linecap="round" stroke-linejoin="round"/>
<path id="Vector_8" fill-rule="evenodd" clip-rule="evenodd" d="M70.8146 103.319C70.8786 103.383 71.0421 103.231 70.8893 103.284C70.8893 103.284 70.7115 103.213 70.8146 103.319Z" fill="#E3E0E1"/>
<path id="Vector_9" d="M70.8146 103.319C70.8786 103.383 71.0421 103.231 70.8893 103.284C70.8893 103.284 70.7115 103.213 70.8146 103.319Z" stroke="#2B2A29" strokeWidth="0.202599" stroke-linecap="round" stroke-linejoin="round"/>
<path id="Vector_10" fill-rule="evenodd" clip-rule="evenodd" d="M74.0847 101.308C73.9745 101.418 74.1629 101.347 74.1024 101.308C74.1024 101.308 74.0882 101.308 74.0847 101.308Z" fill="#E3E0E1"/>
<path id="Vector_11" d="M74.0847 101.308C73.9745 101.418 74.1629 101.347 74.1024 101.308C74.1024 101.308 74.0882 101.308 74.0847 101.308Z" stroke="#2B2A29" strokeWidth="0.202599" stroke-linecap="round" stroke-linejoin="round"/>
<path id="Vector_12" fill-rule="evenodd" clip-rule="evenodd" d="M25.2476 104.264C25.2476 104.264 25.2646 104.237 25.2646 104.247C25.2646 104.247 25.2408 104.261 25.2476 104.264Z" fill="#E3E0E1"/>
<path id="Vector_13" d="M25.2476 104.264C25.2476 104.264 25.2646 104.237 25.2646 104.247C25.2646 104.247 25.2408 104.261 25.2476 104.264Z" stroke="#2B2A29" strokeWidth="0.202599" stroke-linecap="round" stroke-linejoin="round"/>
<path id="Vector_14" fill-rule="evenodd" clip-rule="evenodd" d="M16.8736 35.7757L33.4547 76.8677C40.4674 50.3024 54.9941 41.6688 86.1339 45.2303C72.2008 21.2028 39.1025 13.8559 16.8736 35.7757Z" fill="#126AB2"/>
<path id="Vector_15" fill-rule="evenodd" clip-rule="evenodd" d="M31.3896 44.7755L36.8953 40.4463L31.1728 40.1406L31.3896 44.7755Z" fill="#262424"/>
<path id="Vector_16" fill-rule="evenodd" clip-rule="evenodd" d="M37.5031 40.7627L31.9974 45.0919L37.7199 45.3976L37.5031 40.7627Z" fill="#262424"/>
<path id="Vector_17" fill-rule="evenodd" clip-rule="evenodd" d="M31.5105 50.8214L37.0126 46.4922L31.2901 46.1865L31.5105 50.8214Z" fill="#262424"/>
<path id="Vector_18" fill-rule="evenodd" clip-rule="evenodd" d="M37.624 46.8086L32.1183 51.1378L37.8408 51.4435L37.624 46.8086Z" fill="#262424"/>
<path id="Vector_19" fill-rule="evenodd" clip-rule="evenodd" d="M31.5567 56.5304L37.0624 52.2012L31.3399 51.8955L31.5567 56.5304Z" fill="#262424"/>
<path id="Vector_20" fill-rule="evenodd" clip-rule="evenodd" d="M37.6702 52.5166L32.1645 56.8458L37.887 57.1515L37.6702 52.5166Z" fill="#262424"/>
<path id="Vector_21" fill-rule="evenodd" clip-rule="evenodd" d="M31.7948 62.213L37.3005 57.8838L31.578 57.5781L31.7948 62.213Z" fill="#262424"/>
<path id="Vector_22" fill-rule="evenodd" clip-rule="evenodd" d="M37.9084 58.2002L32.4026 62.5294L38.1252 62.8351L37.9084 58.2002Z" fill="#262424"/>
<path id="Vector_23" d="M30.5153 18.5052L37.9794 11.041V39.4759H30.9596L30.5153 18.5052Z" stroke="#2B2A29" strokeWidth="0.710872" stroke-linecap="round" stroke-linejoin="round"/>
<path id="Vector_24" d="M30.5153 18.5049H37.9794L30.9062 24.8352L37.9794 25.2582L30.9276 32.4558L37.9794 32.765L30.9596 39.4756" stroke="#2B2A29" strokeWidth="0.710872" stroke-linecap="round" stroke-linejoin="round"/>
<path id="Vector_25" d="M37.8941 18.5483L55.2821 3.2041L57.6351 5.56064L44.6616 18.5341L38.31 24.8857L37.8941 25.3087V18.5483ZM37.8941 18.5483L44.5621 18.5056L44.7718 12.6232L49.5453 13.4727L49.8261 8.24774L53.8212 9.25363L53.6826 4.68627L57.5178 5.58197" stroke="#2B2A29" strokeWidth="0.533154" stroke-linecap="round" stroke-linejoin="round"/>
<path id="Vector_26" d="M22.3438 30.0425L28.9584 25.0166V32.7758L22.653 39.4331L22.3438 30.0425Z" stroke="#2B2A29" strokeWidth="0.710872" stroke-linecap="round" stroke-linejoin="round"/>
<path id="Vector_27" d="M22.4398 30.0674L28.8625 32.7225" stroke="#2B2A29" strokeWidth="0.710872" stroke-linecap="round" stroke-linejoin="round"/>
<path id="Vector_28" d="M56.2524 6.96761L57.635 5.58496L57.8447 24.7216H56.3768L56.2524 6.96761Z" stroke="#2B2A29" strokeWidth="0.533154" stroke-linecap="round" stroke-linejoin="round"/>
<path id="Vector_29" fill-rule="evenodd" clip-rule="evenodd" d="M57.0486 23.584C57.5107 23.584 57.8874 23.8754 57.8874 24.238C57.8874 24.5152 57.6671 24.7498 57.3543 24.8458L57.5569 25.3576C59.5047 25.7202 59.1279 27.771 58.0367 28.4499C56.9491 29.1288 55.147 28.4392 55.3034 26.623C56.3697 28.4321 57.8519 28.1265 58.0509 26.982C58.1469 26.4204 57.3934 25.7486 56.7571 25.6562L56.7465 24.8458C56.4337 24.7498 56.2098 24.5152 56.2098 24.238C56.2098 23.879 56.5865 23.584 57.0486 23.584Z" fill="black"/>
<path id="Vector_30" d="M57.0486 23.584C57.5107 23.584 57.8874 23.8754 57.8874 24.238C57.8874 24.5152 57.6671 24.7498 57.3543 24.8458L57.5569 25.3576C59.5047 25.7202 59.1279 27.771 58.0367 28.4499C56.9491 29.1288 55.147 28.4392 55.3034 26.623C56.3697 28.4321 57.8519 28.1265 58.0509 26.982C58.1469 26.4204 57.3934 25.7486 56.7571 25.6562L56.7465 24.8458C56.4337 24.7498 56.2098 24.5152 56.2098 24.238C56.2098 23.879 56.5865 23.584 57.0486 23.584Z" stroke="#2B2A29" strokeWidth="0.202599" stroke-linecap="round" stroke-linejoin="round"/>
<path id="Vector_31" fill-rule="evenodd" clip-rule="evenodd" d="M50.4126 33.3055C50.4126 33.6751 50.4659 38.7756 50.3628 38.8894C50.1282 39.0067 49.6626 38.9427 49.3356 38.9533C49.1295 39.227 49.165 39.2555 49.165 39.6998V50.8533C49.165 51.1093 49.2183 51.1697 49.2467 51.3581C49.3569 52.1329 48.902 51.9623 51.3403 51.9623L65.3622 51.9374C65.4689 51.6246 65.3978 49.1615 65.412 48.5537C65.5044 44.7612 65.4546 41.2424 65.4617 37.4001C65.4617 36.5186 65.6039 36.8705 65.7141 36.2982L65.7319 33.4619C65.7319 33.1597 65.771 32.9927 65.4973 32.95C65.1881 32.9038 65.1099 33.0318 65.1099 33.2984V35.9783C65.1099 36.6323 64.989 36.5044 63.7485 36.5079C61.9394 36.5079 62.1313 36.8563 62.174 34.4464C62.1811 34.027 62.2024 33.8955 61.8327 33.7213C61.4915 33.9168 61.5946 34.1905 61.5946 34.8836L61.5306 36.8918H61.1645L61.1148 38.5162L58.4561 38.4486C58.4632 38.2709 58.5485 36.2378 58.4845 36.0459C58.3779 35.7224 57.8803 35.7189 57.8021 36.2058L57.795 38.4344H54.7418C54.6814 38.0754 54.5996 37.2864 54.756 36.9878C54.8662 36.7745 55.0475 36.3658 54.8342 36.0921C54.493 35.6585 54.724 34.7805 54.5783 33.7711L54.1695 33.7782C54.0131 34.713 54.23 36.0921 53.9918 36.5008C53.3591 36.5399 51.4718 36.611 51.0843 36.3942L51.0595 33.2984C51.0595 32.6017 50.4055 32.7759 50.4055 33.2984L50.4126 33.3055Z" fill="#262424"/>
<path id="Vector_32" d="M50.4126 33.3055C50.4126 33.6751 50.4659 38.7756 50.3628 38.8894C50.1282 39.0067 49.6626 38.9427 49.3356 38.9533C49.1295 39.227 49.165 39.2555 49.165 39.6998V50.8533C49.165 51.1093 49.2183 51.1697 49.2467 51.3581C49.3569 52.1329 48.902 51.9623 51.3403 51.9623L65.3622 51.9374C65.4689 51.6246 65.3978 49.1615 65.412 48.5537C65.5044 44.7612 65.4546 41.2424 65.4617 37.4001C65.4617 36.5186 65.6039 36.8705 65.7141 36.2982L65.7319 33.4619C65.7319 33.1597 65.771 32.9927 65.4973 32.95C65.1881 32.9038 65.1099 33.0318 65.1099 33.2984V35.9783C65.1099 36.6323 64.989 36.5044 63.7485 36.5079C61.9394 36.5079 62.1313 36.8563 62.174 34.4464C62.1811 34.027 62.2024 33.8955 61.8327 33.7213C61.4915 33.9168 61.5946 34.1905 61.5946 34.8836L61.5306 36.8918H61.1645L61.1148 38.5162L58.4561 38.4486C58.4632 38.2709 58.5485 36.2378 58.4845 36.0459C58.3779 35.7224 57.8803 35.7189 57.8021 36.2058L57.795 38.4344H54.7418C54.6814 38.0754 54.5996 37.2864 54.756 36.9878C54.8662 36.7745 55.0475 36.3658 54.8342 36.0921C54.493 35.6585 54.724 34.7805 54.5783 33.7711L54.1695 33.7782C54.0131 34.713 54.23 36.0921 53.9918 36.5008C53.3591 36.5399 51.4718 36.611 51.0843 36.3942L51.0595 33.2984C51.0595 32.6017 50.4055 32.7759 50.4055 33.2984L50.4126 33.3055Z" stroke="#2B2A29" strokeWidth="0.202599" stroke-linecap="round" stroke-linejoin="round"/>
<path id="Vector_33" fill-rule="evenodd" clip-rule="evenodd" d="M57.2867 52.1797C57.2867 52.2828 57.3543 52.1904 57.3116 52.1797C57.3116 52.1797 57.2867 52.0588 57.2867 52.1797Z" fill="#E3E0E1"/>
<path id="Vector_34" d="M57.2867 52.1797C57.2867 52.2828 57.3543 52.1904 57.3116 52.1797C57.3116 52.1797 57.2867 52.0588 57.2867 52.1797Z" stroke="#2B2A29" strokeWidth="0.202599" stroke-linecap="round" stroke-linejoin="round"/>
<path id="Vector_35" d="M61.3352 40.7666H53.0286V45.9453H61.3352V40.7666Z" fill="#126AB2"/>
<path id="Vector_36" d="M61.3352 40.7666H53.0286V45.9453H61.3352V40.7666Z" stroke="#2B2A29" strokeWidth="0.202599" stroke-linecap="round" stroke-linejoin="round"/>
<path id="Vector_37" d="M54.2335 38.6477L57.2227 28.1943L61.2996 39.3266" stroke="#2B2A29" strokeWidth="0.266577" stroke-linecap="round" stroke-linejoin="round"/>
</g>
</svg>
