<svg width="101" height="100" viewBox="0 0 101 100" fill="none" xmlns="http://www.w3.org/2000/svg">
<path d="M76.618 76.931C71.5847 81.7902 65.2512 85.0865 58.3837 86.4213C51.5162 87.7561 44.409 87.0721 37.9221 84.452C31.4352 81.8319 25.8466 77.3881 21.8325 71.6582C17.8185 65.9284 15.5509 59.158 15.3042 52.1663C17.2595 51.8462 19.0379 50.843 20.3232 49.3351C21.6085 47.8272 22.3174 45.9124 22.3238 43.931V38.0487C22.6432 37.9382 22.9124 37.7167 23.0824 37.4246C23.2524 37.1325 23.3119 36.789 23.2502 36.4567C23.1885 36.1244 23.0096 35.8253 22.7461 35.6137C22.4825 35.4021 22.1518 35.292 21.814 35.3036H19.3827V28.5193C19.3827 28.1396 19.2319 27.7756 18.9634 27.5071C18.695 27.2387 18.3309 27.0879 17.9513 27.0879C17.5717 27.0879 17.2076 27.2387 16.9392 27.5071C16.6707 27.7756 16.5199 28.1396 16.5199 28.5193V35.3036H11.1474V28.5193C11.0809 28.1965 10.9051 27.9066 10.6497 27.6984C10.3943 27.4902 10.0749 27.3766 9.7454 27.3766C9.4159 27.3766 9.09649 27.4902 8.84107 27.6984C8.58566 27.9066 8.4099 28.1965 8.34344 28.5193V35.3036H5.85325C5.47362 35.3036 5.10955 35.4544 4.84111 35.7228C4.57268 35.9913 4.42188 36.3553 4.42188 36.7349C4.42395 37.0216 4.51323 37.3008 4.67785 37.5355C4.84247 37.7702 5.07462 37.9492 5.34344 38.0487V43.931C5.35221 45.9261 6.07149 47.8529 7.37226 49.3656C8.67304 50.8784 10.4702 51.8783 12.4415 52.1859C12.6988 59.7361 15.1391 67.0498 19.467 73.2419C23.7949 79.4339 29.8247 84.2387 36.8267 87.0748C43.8287 89.9109 51.5027 90.6566 58.9197 89.2217C66.3368 87.7868 73.1789 84.2328 78.618 78.9899C78.8632 78.7223 78.9993 78.3724 78.9993 78.0095C78.9993 77.6465 78.8632 77.2967 78.618 77.0291C78.3636 76.7545 78.0118 76.5904 77.638 76.5721C77.2641 76.5538 76.8979 76.6826 76.618 76.931ZM8.20619 43.931V38.1663H19.4611V43.931C19.4611 45.3889 18.8833 46.7874 17.8542 47.8201C16.8252 48.8529 15.4288 49.4356 13.9709 49.4408H13.716C12.2547 49.4408 10.8533 48.8603 9.81997 47.827C8.78668 46.7938 8.20619 45.3923 8.20619 43.931Z" fill="#D2AB67" stroke="#D2AB67" stroke-width="1.5"/>
<path d="M53.9918 19.0304C53.6783 18.9075 53.3313 18.899 53.0121 19.0066C52.6929 19.1142 52.4219 19.3309 52.2467 19.6186L30.6781 55.4618C30.5451 55.6866 30.4761 55.9435 30.4786 56.2046C30.4811 56.4658 30.555 56.7214 30.6924 56.9435C30.8297 57.1657 31.0252 57.3461 31.2578 57.4651C31.4903 57.5841 31.7509 57.6372 32.0115 57.6186L53.5801 55.8736L47.9134 81.0304C47.8386 81.36 47.8845 81.7056 48.0428 82.0042C48.2011 82.3029 48.4613 82.5348 48.7762 82.6579C48.9423 82.734 49.1228 82.7741 49.3056 82.7755C49.5503 82.7763 49.7911 82.7135 50.0042 82.5932C50.2173 82.4728 50.3955 82.2992 50.5213 82.0892L72.286 46.501C72.425 46.2773 72.4986 46.0192 72.4986 45.7559C72.4986 45.4926 72.425 45.2345 72.286 45.0108C72.1464 44.7879 71.9481 44.6078 71.7129 44.4902C71.4777 44.3726 71.2147 44.3221 70.9526 44.3441L49.384 46.1088L54.8546 20.6186C54.9192 20.2948 54.8683 19.9586 54.7107 19.6684C54.5531 19.3782 54.2987 19.1524 53.9918 19.0304ZM46.1487 47.3834C46.1005 47.5994 46.1037 47.8238 46.1582 48.0384C46.2127 48.253 46.3169 48.4518 46.4624 48.6187C46.6131 48.7838 46.7985 48.9135 47.0054 48.9982C47.2122 49.083 47.4353 49.1208 47.6585 49.1088L68.3448 47.4226L52.5801 73.2657L56.7566 54.599C56.8049 54.3799 56.8017 54.1524 56.7473 53.9347C56.6928 53.7169 56.5886 53.5148 56.4428 53.3441C56.3045 53.2128 56.1413 53.1105 55.9628 53.0431C55.7843 52.9758 55.5942 52.9448 55.4036 52.952H55.286L34.5605 54.6187L50.2468 28.501L46.1487 47.3834Z" fill="white" stroke="white"/>
<path d="M97.6195 63.6568V57.7745C97.6147 55.7783 96.8968 53.8494 95.5954 52.3358C94.2939 50.8222 92.4944 49.8234 90.5214 49.5196C90.2691 41.9693 87.8326 34.6543 83.5071 28.4607C79.1817 22.2671 73.1529 17.4607 66.1513 14.624C59.1497 11.7872 51.4756 11.0418 44.0589 12.478C36.6422 13.9141 29.8012 17.4703 24.3646 22.7156C24.1767 22.8268 24.0168 22.9794 23.897 23.1619C23.7772 23.3443 23.7007 23.5517 23.6734 23.7683C23.646 23.9848 23.6686 24.2048 23.7393 24.4112C23.81 24.6177 23.927 24.8053 24.0813 24.9597C24.2357 25.114 24.4233 25.231 24.6298 25.3017C24.8362 25.3724 25.0562 25.395 25.2727 25.3676C25.4893 25.3403 25.6967 25.2638 25.8791 25.144C26.0616 25.0242 26.2142 24.8643 26.3254 24.6764C31.3684 19.814 37.7134 16.5186 44.5916 15.1895C51.4697 13.8605 58.5857 14.5548 65.0772 17.1883C71.5687 19.8218 77.157 24.2816 81.1651 30.0271C85.1731 35.7726 87.4288 42.5572 87.6587 49.5588C85.7034 49.8789 83.925 50.8821 82.6397 52.39C81.3544 53.8979 80.6455 55.8127 80.6391 57.7941V63.6764C80.3197 63.7869 80.0505 64.0084 79.8805 64.3005C79.7105 64.5926 79.651 64.9361 79.7127 65.2684C79.7744 65.6007 79.9533 65.8998 80.2168 66.1114C80.4804 66.323 80.8111 66.4331 81.1489 66.4215H83.5803V73.2254C83.5803 73.6051 83.7311 73.9691 83.9995 74.2376C84.2679 74.506 84.632 74.6568 85.0116 74.6568C85.3913 74.6568 85.7553 74.506 86.0238 74.2376C86.2922 73.9691 86.443 73.6051 86.443 73.2254V66.4019H91.8156V73.2058C91.8156 73.5855 91.9664 73.9495 92.2348 74.218C92.5032 74.4864 92.8673 74.6372 93.2469 74.6372C93.6266 74.6372 93.9906 74.4864 94.2591 74.218C94.5275 73.9495 94.6783 73.5855 94.6783 73.2058V66.4019H97.1097C97.2977 66.4019 97.4838 66.3649 97.6574 66.293C97.8311 66.221 97.9889 66.1156 98.1218 65.9827C98.2547 65.8498 98.3602 65.692 98.4321 65.5183C98.504 65.3446 98.5411 65.1585 98.5411 64.9705C98.539 64.6839 98.4497 64.4047 98.2851 64.17C98.1205 63.9353 97.8883 63.7563 97.6195 63.6568ZM93.2469 63.5588H83.443V57.7941C83.443 56.3362 84.0208 54.9377 85.0499 53.905C86.0789 52.8722 87.4753 52.2895 88.9332 52.2843H89.1881C90.6494 52.2843 92.0508 52.8648 93.0841 53.8981C94.1174 54.9313 94.6979 56.3328 94.6979 57.7941V63.5588H93.2469Z" fill="#D2AB67" stroke="#D2AB67" stroke-width="1.5"/>
</svg>
