<svg width="24" height="24" viewBox="0 0 24 24" fill="none" xmlns="http://www.w3.org/2000/svg">
<g clipPath="url(#clip0_218_3493)">
<path d="M0 20V13.1818C0 12.7782 0.113778 12.3482 0.341333 11.8918C0.568889 11.4355 0.899556 11.0927 1.33333 10.8636V7.72727C1.33333 6.95818 1.58978 6.31136 2.10267 5.78682C2.61556 5.26227 3.248 5 4 5H10C10.4596 5 10.852 5.09682 11.1773 5.29045C11.5018 5.48318 11.776 5.75 12 6.09091C12.224 5.75 12.4982 5.48318 12.8227 5.29045C13.148 5.09682 13.5404 5 14 5H20C20.752 5 21.3844 5.26227 21.8973 5.78682C22.4102 6.31136 22.6667 6.95818 22.6667 7.72727V10.8636C23.1013 11.0927 23.432 11.4355 23.6587 11.8918C23.8862 12.3482 24 12.7782 24 13.1818V20H22.6667V17.2727H1.33333V20H0ZM12.6667 10.4545H21.3333V7.72727C21.3333 7.34091 21.2053 7.01727 20.9493 6.75636C20.6933 6.49545 20.3769 6.36455 20 6.36364H14C13.6222 6.36364 13.3058 6.49455 13.0507 6.75636C12.7956 7.01818 12.6676 7.34182 12.6667 7.72727V10.4545ZM2.66667 10.4545H11.3333V7.72727C11.3333 7.34091 11.2053 7.01727 10.9493 6.75636C10.6933 6.49545 10.3769 6.36455 10 6.36364H4C3.62222 6.36364 3.30578 6.49455 3.05067 6.75636C2.79556 7.01818 2.66756 7.34182 2.66667 7.72727V10.4545ZM1.33333 15.9091H22.6667V13.1818C22.6667 12.7955 22.5387 12.4718 22.2827 12.2109C22.0267 11.95 21.7102 11.8191 21.3333 11.8182H2.66667C2.28889 11.8182 1.97244 11.9491 1.71733 12.2109C1.46222 12.4727 1.33422 12.7964 1.33333 13.1818V15.9091Z" fill="black" stroke="black" strokeWidth="0.5"/>
</g>
<defs>
<clipPath id="clip0_218_3493">
<rect width="24" height="24" fill="white"/>
</clipPath>
</defs>
</svg>
