<svg width="24" height="24" viewBox="0 0 24 24" fill="none" xmlns="http://www.w3.org/2000/svg">
<path d="M21.75 21.375H19.125V2.625H20.25C20.3495 2.625 20.4448 2.58549 20.5152 2.51516C20.5855 2.44484 20.625 2.34946 20.625 2.25C20.625 2.15054 20.5855 2.05516 20.5152 1.98484C20.4448 1.91451 20.3495 1.875 20.25 1.875H3.75C3.65054 1.875 3.55516 1.91451 3.48484 1.98484C3.41451 2.05516 3.375 2.15054 3.375 2.25C3.375 2.34946 3.41451 2.44484 3.48484 2.51516C3.55516 2.58549 3.65054 2.625 3.75 2.625H4.875V21.375H2.25C2.15054 21.375 2.05516 21.4145 1.98484 21.4848C1.91451 21.5552 1.875 21.6505 1.875 21.75C1.875 21.8495 1.91451 21.9448 1.98484 22.0152C2.05516 22.0855 2.15054 22.125 2.25 22.125H21.75C21.8495 22.125 21.9448 22.0855 22.0152 22.0152C22.0855 21.9448 22.125 21.8495 22.125 21.75C22.125 21.6505 22.0855 21.5552 22.0152 21.4848C21.9448 21.4145 21.8495 21.375 21.75 21.375ZM5.625 2.625H18.375V21.375H14.625V17.25C14.625 17.1505 14.5855 17.0552 14.5152 16.9848C14.4448 16.9145 14.3495 16.875 14.25 16.875H9.75C9.65054 16.875 9.55516 16.9145 9.48483 16.9848C9.41451 17.0552 9.375 17.1505 9.375 17.25V21.375H5.625V2.625ZM13.875 21.375H10.125V17.625H13.875V21.375ZM8.625 6C8.625 5.90054 8.66451 5.80516 8.73483 5.73484C8.80516 5.66451 8.90054 5.625 9 5.625H10.5C10.5995 5.625 10.6948 5.66451 10.7652 5.73484C10.8355 5.80516 10.875 5.90054 10.875 6C10.875 6.09946 10.8355 6.19484 10.7652 6.26517C10.6948 6.33549 10.5995 6.375 10.5 6.375H9C8.90054 6.375 8.80516 6.33549 8.73483 6.26517C8.66451 6.19484 8.625 6.09946 8.625 6ZM13.125 6C13.125 5.90054 13.1645 5.80516 13.2348 5.73484C13.3052 5.66451 13.4005 5.625 13.5 5.625H15C15.0995 5.625 15.1948 5.66451 15.2652 5.73484C15.3355 5.80516 15.375 5.90054 15.375 6C15.375 6.09946 15.3355 6.19484 15.2652 6.26517C15.1948 6.33549 15.0995 6.375 15 6.375H13.5C13.4005 6.375 13.3052 6.33549 13.2348 6.26517C13.1645 6.19484 13.125 6.09946 13.125 6ZM8.625 9.75C8.625 9.65054 8.66451 9.55516 8.73483 9.48483C8.80516 9.41451 8.90054 9.375 9 9.375H10.5C10.5995 9.375 10.6948 9.41451 10.7652 9.48483C10.8355 9.55516 10.875 9.65054 10.875 9.75C10.875 9.84946 10.8355 9.94484 10.7652 10.0152C10.6948 10.0855 10.5995 10.125 10.5 10.125H9C8.90054 10.125 8.80516 10.0855 8.73483 10.0152C8.66451 9.94484 8.625 9.84946 8.625 9.75ZM13.125 9.75C13.125 9.65054 13.1645 9.55516 13.2348 9.48483C13.3052 9.41451 13.4005 9.375 13.5 9.375H15C15.0995 9.375 15.1948 9.41451 15.2652 9.48483C15.3355 9.55516 15.375 9.65054 15.375 9.75C15.375 9.84946 15.3355 9.94484 15.2652 10.0152C15.1948 10.0855 15.0995 10.125 15 10.125H13.5C13.4005 10.125 13.3052 10.0855 13.2348 10.0152C13.1645 9.94484 13.125 9.84946 13.125 9.75ZM9 13.875C8.90054 13.875 8.80516 13.8355 8.73483 13.7652C8.66451 13.6948 8.625 13.5995 8.625 13.5C8.625 13.4005 8.66451 13.3052 8.73483 13.2348C8.80516 13.1645 8.90054 13.125 9 13.125H10.5C10.5995 13.125 10.6948 13.1645 10.7652 13.2348C10.8355 13.3052 10.875 13.4005 10.875 13.5C10.875 13.5995 10.8355 13.6948 10.7652 13.7652C10.6948 13.8355 10.5995 13.875 10.5 13.875H9ZM13.125 13.5C13.125 13.4005 13.1645 13.3052 13.2348 13.2348C13.3052 13.1645 13.4005 13.125 13.5 13.125H15C15.0995 13.125 15.1948 13.1645 15.2652 13.2348C15.3355 13.3052 15.375 13.4005 15.375 13.5C15.375 13.5995 15.3355 13.6948 15.2652 13.7652C15.1948 13.8355 15.0995 13.875 15 13.875H13.5C13.4005 13.875 13.3052 13.8355 13.2348 13.7652C13.1645 13.6948 13.125 13.5995 13.125 13.5Z" fill="black" stroke="black" strokeWidth="0.5"/>
</svg>
