<svg width="61" height="60" viewBox="0 0 61 60" fill="none" xmlns="http://www.w3.org/2000/svg">
<circle cx="30.5" cy="30" r="30" fill="#D2AB67"/>
<path d="M16.5 25.56V37C16.5 38.0609 16.9214 39.0783 17.6716 39.8284C18.4217 40.5786 19.4391 41 20.5 41H40.5C41.5609 41 42.5783 40.5786 43.3284 39.8284C44.0786 39.0783 44.5 38.0609 44.5 37V25.56L32.596 32.884C31.9657 33.2718 31.2401 33.4771 30.5 33.4771C29.7599 33.4771 29.0343 33.2718 28.404 32.884L16.5 25.56Z" fill="white"/>
<path d="M44.5 23.2107V23C44.5 21.9391 44.0786 20.9217 43.3284 20.1716C42.5783 19.4214 41.5609 19 40.5 19H20.5C19.4391 19 18.4217 19.4214 17.6716 20.1716C16.9214 20.9217 16.5 21.9391 16.5 23V23.2107L29.452 31.1813C29.7672 31.3752 30.13 31.4779 30.5 31.4779C30.87 31.4779 31.2328 31.3752 31.548 31.1813L44.5 23.2107Z" fill="white"/>
</svg>
