<svg width="32" height="32" viewBox="0 0 32 32" fill="none" xmlns="http://www.w3.org/2000/svg">
<path fill-rule="evenodd" clip-rule="evenodd" d="M15.0157 29.5121C15.0157 29.5121 5.33301 21.3574 5.33301 13.3334C5.33301 10.5044 6.45681 7.79133 8.4572 5.79094C10.4576 3.79055 13.1707 2.66675 15.9997 2.66675C18.8287 2.66675 21.5418 3.79055 23.5421 5.79094C25.5425 7.79133 26.6663 10.5044 26.6663 13.3334C26.6663 21.3574 16.9837 29.5121 16.9837 29.5121C16.445 30.0081 15.5583 30.0028 15.0157 29.5121ZM15.9997 18.0001C16.6125 18.0001 17.2193 17.8794 17.7855 17.6449C18.3517 17.4103 18.8662 17.0666 19.2995 16.6332C19.7328 16.1999 20.0766 15.6855 20.3111 15.1193C20.5456 14.5531 20.6663 13.9463 20.6663 13.3334C20.6663 12.7206 20.5456 12.1137 20.3111 11.5476C20.0766 10.9814 19.7328 10.4669 19.2995 10.0336C18.8662 9.60024 18.3517 9.2565 17.7855 9.02198C17.2193 8.78746 16.6125 8.66675 15.9997 8.66675C14.762 8.66675 13.575 9.15841 12.6998 10.0336C11.8247 10.9088 11.333 12.0957 11.333 13.3334C11.333 14.5711 11.8247 15.7581 12.6998 16.6332C13.575 17.5084 14.762 18.0001 15.9997 18.0001Z" fill="#D2AB67"/>
</svg>
