<svg width="61" height="60" viewBox="0 0 61 60" fill="none" xmlns="http://www.w3.org/2000/svg">
<circle cx="30.5" cy="30" r="30" fill="#D2AB67"/>
<path d="M38.9372 44C37.7172 44 36.0035 43.5588 33.4372 42.125C30.3166 40.375 27.9028 38.7594 24.7991 35.6638C21.8066 32.6732 20.3503 30.7369 18.3122 27.0282C16.0097 22.8407 16.4022 20.6457 16.841 19.7075C17.3635 18.5863 18.1347 17.9157 19.1316 17.25C19.6978 16.8791 20.297 16.561 20.9216 16.3C20.9841 16.2732 21.0422 16.2475 21.0941 16.2244C21.4035 16.085 21.8722 15.8744 22.466 16.0994C22.8622 16.2482 23.216 16.5525 23.7697 17.0994C24.9053 18.2194 26.4572 20.7138 27.0297 21.9388C27.4141 22.7644 27.6685 23.3094 27.6691 23.9207C27.6691 24.6363 27.3091 25.1882 26.8722 25.7838C26.7903 25.8957 26.7091 26.0025 26.6303 26.1063C26.1547 26.7313 26.0503 26.9119 26.1191 27.2344C26.2585 27.8825 27.2978 29.8119 29.006 31.5163C30.7141 33.2207 32.5878 34.1944 33.2385 34.3332C33.5747 34.405 33.7591 34.2963 34.4041 33.8038C34.4966 33.7332 34.5916 33.66 34.691 33.5869C35.3572 33.0913 35.8835 32.7407 36.5822 32.7407H36.586C37.1941 32.7407 37.7147 33.0044 38.5772 33.4394C39.7022 34.0069 42.2716 35.5388 43.3985 36.6757C43.9466 37.2282 44.2522 37.5807 44.4016 37.9763C44.6266 38.5719 44.4147 39.0388 44.2766 39.3513C44.2535 39.4032 44.2278 39.46 44.201 39.5232C43.9379 40.1466 43.618 40.7446 43.2453 41.3094C42.581 42.3032 41.9078 43.0725 40.7841 43.5957C40.2071 43.8686 39.5755 44.0069 38.9372 44Z" fill="white"/>
</svg>
