<svg width="50" height="50" viewBox="0 0 50 50" fill="none" xmlns="http://www.w3.org/2000/svg">
<circle cx="25" cy="25" r="24.5" fill="white" stroke="#D2AB67"/>
<path d="M26 15C26 14.4477 25.5523 14 25 14C24.4477 14 24 14.4477 24 15H26ZM24.2929 35.7071C24.6834 36.0976 25.3166 36.0976 25.7071 35.7071L32.0711 29.3431C32.4616 28.9526 32.4616 28.3195 32.0711 27.9289C31.6805 27.5384 31.0474 27.5384 30.6569 27.9289L25 33.5858L19.3431 27.9289C18.9526 27.5384 18.3195 27.5384 17.9289 27.9289C17.5384 28.3195 17.5384 28.9526 17.9289 29.3431L24.2929 35.7071ZM24 15L24 35H26L26 15H24Z" fill="#D2AB67"/>
</svg>
