<svg width="54" height="54" viewBox="0 0 54 54" fill="none" xmlns="http://www.w3.org/2000/svg">
<rect x="-0.5" y="-0.5" width="53" height="53" rx="26.5" transform="matrix(0 -1 -1 0 53 53)" stroke="black"/>
<g clipPath="url(#clip0_155_5333)">
<path d="M18.6365 27.7073C18.4491 27.5198 18.3438 27.2655 18.3438 27.0003C18.3438 26.7352 18.4491 26.4809 18.6365 26.2933L24.2935 20.6363C24.3858 20.5408 24.4961 20.4647 24.6181 20.4122C24.7401 20.3598 24.8714 20.3322 25.0041 20.3311C25.1369 20.3299 25.2686 20.3552 25.3915 20.4055C25.5144 20.4558 25.626 20.5301 25.7199 20.6239C25.8138 20.7178 25.8881 20.8295 25.9384 20.9524C25.9886 21.0753 26.0139 21.207 26.0128 21.3397C26.0116 21.4725 25.984 21.6037 25.9316 21.7257C25.8792 21.8478 25.803 21.9581 25.7075 22.0503L21.7575 26.0003L35.0005 26.0003C35.2658 26.0003 35.5201 26.1057 35.7076 26.2932C35.8952 26.4808 36.0005 26.7351 36.0005 27.0003C36.0005 27.2656 35.8952 27.5199 35.7076 27.7074C35.5201 27.895 35.2658 28.0003 35.0005 28.0003L21.7575 28.0003L25.7075 31.9503C25.8897 32.1389 25.9905 32.3915 25.9882 32.6537C25.9859 32.9159 25.8808 33.1668 25.6954 33.3522C25.5099 33.5376 25.2591 33.6427 24.9969 33.645C24.7347 33.6473 24.4821 33.5465 24.2935 33.3643L18.6365 27.7073Z" fill="black"/>
</g>
<defs>
<clipPath id="clip0_155_5333">
<rect width="24" height="24" fill="white" transform="matrix(0 1 1 0 15 15)"/>
</clipPath>
</defs>
</svg>
