<svg width="51" height="42" viewBox="0 0 51 42" fill="none" xmlns="http://www.w3.org/2000/svg">
<path opacity="0.5" d="M14.5428 21.9545C18.9794 23.6727 21.2941 26.9182 21.2941 31.6909C21.2941 34.3636 20.3297 36.6545 18.2078 38.7546C16.086 40.8545 13.3854 42 10.492 42C7.79148 42 5.47674 41.0455 3.35489 38.9455C1.23304 36.8454 0.0756737 34.5545 0.0756737 31.8818C-0.117221 29.9727 0.0756737 27.6818 0.461464 25.0091C0.654359 22.5273 2.19752 18.5182 4.89805 13.3636C7.40569 8.20909 11.2636 3.81818 16.2789 0H17.2433C17.0505 0.190907 16.6647 0.57272 16.2789 0.763627C15.7002 1.14545 14.9286 1.90909 13.7712 3.05454C12.6139 4.19999 11.6494 5.34545 10.6849 6.3C9.72043 7.44545 8.94885 8.78182 8.37017 10.1182C7.79148 11.6455 7.40569 12.9818 7.59859 14.3182C7.59859 15.6545 8.17727 16.9909 9.33464 18.3273C10.492 19.6636 12.2281 21 14.5428 21.9545ZM44.0558 21.9545C48.4924 23.6727 51 26.9182 51 31.6909C51 34.3636 50.0355 36.6545 47.7208 38.7546C45.5989 40.8545 42.8984 42 40.005 42C37.3044 42 34.9897 41.0455 32.8679 38.9455C30.746 36.8454 29.5886 34.5545 29.5886 31.8818C29.3957 29.9727 29.5886 27.6818 29.9744 25.0091C30.1673 22.5273 31.7105 18.5182 34.411 13.3636C36.9187 8.20909 40.7766 3.81818 45.7918 0H46.7563C46.5634 0.190907 46.1776 0.57272 45.7918 0.763627C45.2132 1.14545 44.4416 1.90909 43.2842 3.05454C42.1268 4.19999 41.1623 5.34545 40.3908 6.3C39.4263 7.44545 38.6547 8.78182 38.076 10.1182C37.3044 11.6455 36.9187 12.9818 37.1115 14.3182C37.1115 15.6545 37.6902 16.9909 38.8476 18.3273C40.005 19.6636 41.741 21 44.0558 21.9545Z" fill="#FAF6EF"/>
</svg>
