<svg width="36" height="35" viewBox="0 0 36 35" fill="none" xmlns="http://www.w3.org/2000/svg">
<circle cx="18.1538" cy="17.5" r="17.5" fill="#D2AB67"/>
<path d="M21.8461 8.77344C23.1722 8.77344 24.4439 9.30022 25.3816 10.2379C26.3193 11.1756 26.8461 12.4474 26.8461 13.7734V21.7734C26.8461 23.0995 26.3193 24.3713 25.3816 25.309C24.4439 26.2467 23.1722 26.7734 21.8461 26.7734H13.8461C12.52 26.7734 11.2482 26.2467 10.3105 25.309C9.37285 24.3713 8.84607 23.0995 8.84607 21.7734V13.7734C8.84607 12.4474 9.37285 11.1756 10.3105 10.2379C11.2482 9.30022 12.52 8.77344 13.8461 8.77344H21.8461ZM17.8461 13.7734C16.7852 13.7734 15.7678 14.1949 15.0176 14.945C14.2675 15.6952 13.8461 16.7126 13.8461 17.7734C13.8461 18.8343 14.2675 19.8517 15.0176 20.6019C15.7678 21.352 16.7852 21.7734 17.8461 21.7734C18.9069 21.7734 19.9244 21.352 20.6745 20.6019C21.4246 19.8517 21.8461 18.8343 21.8461 17.7734C21.8461 16.7126 21.4246 15.6952 20.6745 14.945C19.9244 14.1949 18.9069 13.7734 17.8461 13.7734ZM17.8461 15.7734C18.3765 15.7734 18.8852 15.9842 19.2603 16.3592C19.6354 16.7343 19.8461 17.243 19.8461 17.7734C19.8461 18.3039 19.6354 18.8126 19.2603 19.1877C18.8852 19.5627 18.3765 19.7734 17.8461 19.7734C17.3156 19.7734 16.8069 19.5627 16.4319 19.1877C16.0568 18.8126 15.8461 18.3039 15.8461 17.7734C15.8461 17.243 16.0568 16.7343 16.4319 16.3592C16.8069 15.9842 17.3156 15.7734 17.8461 15.7734ZM22.3461 12.2734C22.0809 12.2734 21.8265 12.3788 21.639 12.5663C21.4514 12.7539 21.3461 13.0082 21.3461 13.2734C21.3461 13.5387 21.4514 13.793 21.639 13.9805C21.8265 14.1681 22.0809 14.2734 22.3461 14.2734C22.6113 14.2734 22.8656 14.1681 23.0532 13.9805C23.2407 13.793 23.3461 13.5387 23.3461 13.2734C23.3461 13.0082 23.2407 12.7539 23.0532 12.5663C22.8656 12.3788 22.6113 12.2734 22.3461 12.2734Z" fill="#0A0B10"/>
</svg>
