<svg width="50" height="50" viewBox="0 0 50 50" fill="none" xmlns="http://www.w3.org/2000/svg">
<circle cx="25" cy="25" r="24.5" fill="white" stroke="#D2AB67"/>
<path d="M24 35C24 35.5523 24.4477 36 25 36C25.5523 36 26 35.5523 26 35H24ZM25.7071 14.2929C25.3166 13.9024 24.6834 13.9024 24.2929 14.2929L17.9289 20.6569C17.5384 21.0474 17.5384 21.6805 17.9289 22.0711C18.3195 22.4616 18.9526 22.4616 19.3431 22.0711L25 16.4142L30.6569 22.0711C31.0474 22.4616 31.6805 22.4616 32.0711 22.0711C32.4616 21.6805 32.4616 21.0474 32.0711 20.6569L25.7071 14.2929ZM26 35V15H24V35H26Z" fill="#D2AB67"/>
</svg>
