<svg width="36" height="35" viewBox="0 0 36 35" fill="none" xmlns="http://www.w3.org/2000/svg">
<circle cx="18.3846" cy="17.5" r="17.5" fill="#D2AB67"/>
<path d="M16.5898 20.1916L21.2475 17.4993L16.5898 14.807V20.1916ZM26.9642 13.1647C27.0809 13.5865 27.1616 14.1519 27.2155 14.8698C27.2783 15.5878 27.3052 16.207 27.3052 16.7455L27.3591 17.4993C27.3591 19.4647 27.2155 20.9096 26.9642 21.834C26.7398 22.6416 26.2193 23.1622 25.4116 23.3865C24.9898 23.5032 24.218 23.584 23.0334 23.6378C21.8667 23.7006 20.7988 23.7275 19.8116 23.7275L18.3847 23.7814C14.6244 23.7814 12.2821 23.6378 11.3578 23.3865C10.5501 23.1622 10.0296 22.6416 9.80521 21.834C9.68854 21.4122 9.60778 20.8468 9.55393 20.1288C9.49111 19.4109 9.46419 18.7916 9.46419 18.2532L9.41034 17.4993C9.41034 15.534 9.55393 14.0891 9.80521 13.1647C10.0296 12.357 10.5501 11.8365 11.3578 11.6122C11.7796 11.4955 12.5514 11.4147 13.736 11.3609C14.9026 11.2981 15.9706 11.2711 16.9578 11.2711L18.3847 11.2173C22.145 11.2173 24.4873 11.3609 25.4116 11.6122C26.2193 11.8365 26.7398 12.357 26.9642 13.1647Z" fill="#0A0B10"/>
</svg>
